<svg width="50" height="48" viewBox="0 0 50 48" fill="none" xmlns="http://www.w3.org/2000/svg">
<g filter="url(#filter0_d_8_19)">
<path d="M5.91406 40C5.23698 40 5.0612 39.5703 5.38672 38.7109L15.1133 13.1836C15.4128 12.3893 15.8424 11.9922 16.4023 11.9922H19.1367C19.6966 11.9922 20.1263 12.3893 20.4258 13.1836L30.1523 38.7109C30.4779 39.5703 30.3021 40 29.625 40H27.6328C26.9427 40 26.474 39.681 26.2266 39.043L23.7852 32.5781H11.7539L9.3125 39.043C9.0651 39.681 8.59635 40 7.90625 40H5.91406ZM12.9844 29.375H22.5547L19.5664 21.5625C19.293 20.8333 19.0195 20.026 18.7461 19.1406C18.4857 18.2552 18.1732 16.9987 17.8086 15.3711H17.7305C17.3659 16.9987 17.0469 18.2552 16.7734 19.1406C16.513 20.026 16.2461 20.8333 15.9727 21.5625L12.9844 29.375Z" fill="#CCCCCC"/>
</g>
<path d="M27.4922 40C26.5807 40 26.125 39.5117 26.125 38.5352V13.457C26.125 12.4805 26.5807 11.9922 27.4922 11.9922H30.4609C31.3724 11.9922 31.8281 12.4805 31.8281 13.457V21.2305C31.8281 22.0117 31.7956 22.793 31.7305 23.5742H31.8672L41.3594 13.1445C42.0625 12.3763 42.6615 11.9922 43.1562 11.9922H47.082C48.6055 11.9922 48.8529 12.5521 47.8242 13.6719L38.9375 23.3984L48.4492 38.3203C49.1654 39.4401 48.918 40 47.707 40H44.0547C43.3776 40 42.7917 39.6159 42.2969 38.8477L35.1094 27.5781L31.8281 31.2695V38.5352C31.8281 39.5117 31.3724 40 30.4609 40H27.4922Z" fill="#777777"/>
<defs>
<filter id="filter0_d_8_19" x="0.898438" y="11.9922" width="33.7422" height="36.0078" filterUnits="userSpaceOnUse" color-interpolation-filters="sRGB">
<feFlood flood-opacity="0" result="BackgroundImageFix"/>
<feColorMatrix in="SourceAlpha" type="matrix" values="0 0 0 0 0 0 0 0 0 0 0 0 0 0 0 0 0 0 127 0" result="hardAlpha"/>
<feOffset dy="4"/>
<feGaussianBlur stdDeviation="2"/>
<feComposite in2="hardAlpha" operator="out"/>
<feColorMatrix type="matrix" values="0 0 0 0 0.108333 0 0 0 0 0.0654514 0 0 0 0 0.0654514 0 0 0 0.25 0"/>
<feBlend mode="normal" in2="BackgroundImageFix" result="effect1_dropShadow_8_19"/>
<feBlend mode="normal" in="SourceGraphic" in2="effect1_dropShadow_8_19" result="shape"/>
</filter>
</defs>
</svg>
