<svg id="visual" viewBox="0 0 72 72" width="72" height="72" xmlns="http://www.w3.org/2000/svg" xmlns:xlink="http://www.w3.org/1999/xlink" version="1.1"><g stroke-width="1" stroke-linejoin="bevel"><path d="M30 27L37 21L30 26Z" fill="#cacaca" stroke="#cacaca"></path><path d="M50 46L49 17L37 21Z" fill="#d5dbdf" stroke="#d5dbdf"></path><path d="M30 27L40 47L37 21Z" fill="#d4d9dc" stroke="#d4d9dc"></path><path d="M28 3L16 19L30 26Z" fill="#d4d9dc" stroke="#d4d9dc"></path><path d="M30 26L16 19L30 27Z" fill="#d8e0e5" stroke="#d8e0e5"></path><path d="M30 27L9 46L40 47Z" fill="#d2d6d9" stroke="#d2d6d9"></path><path d="M28 3L30 26L37 21Z" fill="#d5dbdf" stroke="#d5dbdf"></path><path d="M40 47L50 46L37 21Z" fill="#cfd1d3" stroke="#cfd1d3"></path><path d="M40 47L43 50L50 46Z" fill="#d8e0e5" stroke="#d8e0e5"></path><path d="M35 0L28 3L37 21Z" fill="#cdcfd0" stroke="#cdcfd0"></path><path d="M53 48L51 46L50 46Z" fill="#d2d6d9" stroke="#d2d6d9"></path><path d="M50 46L63 25L49 17Z" fill="#cdcfd0" stroke="#cdcfd0"></path><path d="M49 17L35 0L37 21Z" fill="#cccccd" stroke="#cccccd"></path><path d="M35 0L31 0L28 3Z" fill="#d0d4d6" stroke="#d0d4d6"></path><path d="M64 36L63 25L50 46Z" fill="#cfd1d3" stroke="#cfd1d3"></path><path d="M49 17L49 0L35 0Z" fill="#cfd1d3" stroke="#cfd1d3"></path><path d="M43 50L53 48L50 46Z" fill="#d0d4d6" stroke="#d0d4d6"></path><path d="M51 46L64 36L50 46Z" fill="#d7dee2" stroke="#d7dee2"></path><path d="M2 16L7 26L16 19Z" fill="#d8e0e5" stroke="#d8e0e5"></path><path d="M16 19L7 26L30 27Z" fill="#d2d6d9" stroke="#d2d6d9"></path><path d="M40 47L39 59L43 50Z" fill="#cdcfd0" stroke="#cdcfd0"></path><path d="M31 0L24 0L28 3Z" fill="#d8e0e5" stroke="#d8e0e5"></path><path d="M28 3L12 8L16 19Z" fill="#cfd1d3" stroke="#cfd1d3"></path><path d="M72 25L65 23L63 25Z" fill="#cccccd" stroke="#cccccd"></path><path d="M63 25L63 15L49 17Z" fill="#d2d6d9" stroke="#d2d6d9"></path><path d="M50 0L49 0L49 17Z" fill="#d5dbdf" stroke="#d5dbdf"></path><path d="M65 23L63 15L63 25Z" fill="#cdcfd0" stroke="#cdcfd0"></path><path d="M53 48L64 36L51 46Z" fill="#d7dee2" stroke="#d7dee2"></path><path d="M18 0L12 8L28 3Z" fill="#d8e0e5" stroke="#d8e0e5"></path><path d="M63 8L50 0L49 17Z" fill="#d0d4d6" stroke="#d0d4d6"></path><path d="M24 0L18 0L28 3Z" fill="#d8e0e5" stroke="#d8e0e5"></path><path d="M23 62L39 59L40 47Z" fill="#cdcfd0" stroke="#cdcfd0"></path><path d="M43 50L49 59L53 48Z" fill="#d5dbdf" stroke="#d5dbdf"></path><path d="M7 26L9 46L30 27Z" fill="#d2d6d9" stroke="#d2d6d9"></path><path d="M63 15L63 8L49 17Z" fill="#cacaca" stroke="#cacaca"></path><path d="M72 12L63 8L63 15Z" fill="#d2d6d9" stroke="#d2d6d9"></path><path d="M9 -1L8 7L12 8Z" fill="#d8e0e5" stroke="#d8e0e5"></path><path d="M12 8L2 16L16 19Z" fill="#cfd1d3" stroke="#cfd1d3"></path><path d="M0 26L2 34L7 26Z" fill="#cdcfd0" stroke="#cdcfd0"></path><path d="M7 26L2 34L9 46Z" fill="#d8e0e5" stroke="#d8e0e5"></path><path d="M18 0L9 -1L12 8Z" fill="#cccccd" stroke="#cccccd"></path><path d="M24 0L22 -6L18 0Z" fill="#cccccd" stroke="#cccccd"></path><path d="M31 0L24 -6L24 0Z" fill="#cdcfd0" stroke="#cdcfd0"></path><path d="M35 0L24 -6L31 0Z" fill="#d0d4d6" stroke="#d0d4d6"></path><path d="M47 -16L24 -6L35 0Z" fill="#cfd1d3" stroke="#cfd1d3"></path><path d="M47 -16L35 0L49 0Z" fill="#cfd1d3" stroke="#cfd1d3"></path><path d="M39 59L49 59L43 50Z" fill="#d2d6d9" stroke="#d2d6d9"></path><path d="M53 48L69 39L64 36Z" fill="#cacaca" stroke="#cacaca"></path><path d="M8 7L2 16L12 8Z" fill="#dae3e8" stroke="#dae3e8"></path><path d="M24 -6L22 -6L24 0Z" fill="#d0d4d6" stroke="#d0d4d6"></path><path d="M63 8L62 3L50 0Z" fill="#d7dee2" stroke="#d7dee2"></path><path d="M62 3L58 -1L50 0Z" fill="#d4d9dc" stroke="#d4d9dc"></path><path d="M50 0L47 -16L49 0Z" fill="#d7dee2" stroke="#d7dee2"></path><path d="M72 46L69 39L53 48Z" fill="#cfd1d3" stroke="#cfd1d3"></path><path d="M72 33L72 25L63 25Z" fill="#d4d9dc" stroke="#d4d9dc"></path><path d="M65 23L72 16L63 15Z" fill="#d5dbdf" stroke="#d5dbdf"></path><path d="M2 16L0 26L7 26Z" fill="#d7dee2" stroke="#d7dee2"></path><path d="M23 62L41 62L39 59Z" fill="#cacaca" stroke="#cacaca"></path><path d="M39 59L41 62L49 59Z" fill="#cccccd" stroke="#cccccd"></path><path d="M0 26L0 33L2 34Z" fill="#d0d4d6" stroke="#d0d4d6"></path><path d="M2 34L0 42L9 46Z" fill="#d5dbdf" stroke="#d5dbdf"></path><path d="M72 33L63 25L64 36Z" fill="#cdcfd0" stroke="#cdcfd0"></path><path d="M63 8L68 0L62 3Z" fill="#cacaca" stroke="#cacaca"></path><path d="M0 33L0 34L2 34Z" fill="#d0d4d6" stroke="#d0d4d6"></path><path d="M69 39L72 33L64 36Z" fill="#cacaca" stroke="#cacaca"></path><path d="M9 46L23 62L40 47Z" fill="#cccccd" stroke="#cccccd"></path><path d="M72 25L72 16L65 23Z" fill="#d4d9dc" stroke="#d4d9dc"></path><path d="M12 -9L9 -1L18 0Z" fill="#cccccd" stroke="#cccccd"></path><path d="M-3 0L-2 18L2 16Z" fill="#cdcfd0" stroke="#cdcfd0"></path><path d="M2 16L-2 18L0 26Z" fill="#cdcfd0" stroke="#cdcfd0"></path><path d="M0 26L-8 26L0 33Z" fill="#d7dee2" stroke="#d7dee2"></path><path d="M0 33L-8 26L0 34Z" fill="#d0d4d6" stroke="#d0d4d6"></path><path d="M0 0L2 16L8 7Z" fill="#cacaca" stroke="#cacaca"></path><path d="M-8 26L0 42L0 34Z" fill="#dae3e8" stroke="#dae3e8"></path><path d="M0 34L0 42L2 34Z" fill="#dae3e8" stroke="#dae3e8"></path><path d="M9 46L11 57L23 62Z" fill="#d2d6d9" stroke="#d2d6d9"></path><path d="M75 34L74 33L72 33Z" fill="#dae3e8" stroke="#dae3e8"></path><path d="M72 33L74 33L72 25Z" fill="#d5dbdf" stroke="#d5dbdf"></path><path d="M72 25L84 28L72 16Z" fill="#d2d6d9" stroke="#d2d6d9"></path><path d="M84 28L72 12L72 16Z" fill="#cccccd" stroke="#cccccd"></path><path d="M72 16L72 12L63 15Z" fill="#d4d9dc" stroke="#d4d9dc"></path><path d="M62 3L68 0L58 -1Z" fill="#d0d4d6" stroke="#d0d4d6"></path><path d="M1 52L11 57L9 46Z" fill="#d8e0e5" stroke="#d8e0e5"></path><path d="M-26 39L0 43L0 42Z" fill="#cdcfd0" stroke="#cdcfd0"></path><path d="M0 42L0 43L9 46Z" fill="#d4d9dc" stroke="#d4d9dc"></path><path d="M75 36L75 34L72 33Z" fill="#cacaca" stroke="#cacaca"></path><path d="M74 33L84 28L72 25Z" fill="#cccccd" stroke="#cccccd"></path><path d="M75 36L72 33L69 39Z" fill="#d4d9dc" stroke="#d4d9dc"></path><path d="M42 77L44 66L41 62Z" fill="#dae3e8" stroke="#dae3e8"></path><path d="M41 62L44 66L49 59Z" fill="#d5dbdf" stroke="#d5dbdf"></path><path d="M72 46L75 36L69 39Z" fill="#d4d9dc" stroke="#d4d9dc"></path><path d="M72 46L53 48L72 60Z" fill="#d8e0e5" stroke="#d8e0e5"></path><path d="M76 49L72 46L72 60Z" fill="#d5dbdf" stroke="#d5dbdf"></path><path d="M72 1L68 0L63 8Z" fill="#d5dbdf" stroke="#d5dbdf"></path><path d="M17 -23L22 -6L24 -6Z" fill="#cccccd" stroke="#cccccd"></path><path d="M22 -6L12 -9L18 0Z" fill="#cccccd" stroke="#cccccd"></path><path d="M9 -1L0 0L8 7Z" fill="#d4d9dc" stroke="#d4d9dc"></path><path d="M17 -23L12 -9L22 -6Z" fill="#d2d6d9" stroke="#d2d6d9"></path><path d="M47 -16L50 0L58 -1Z" fill="#cccccd" stroke="#cccccd"></path><path d="M0 43L1 52L9 46Z" fill="#d7dee2" stroke="#d7dee2"></path><path d="M-26 -4L-8 26L-2 18Z" fill="#d2d6d9" stroke="#d2d6d9"></path><path d="M-2 18L-8 26L0 26Z" fill="#d8e0e5" stroke="#d8e0e5"></path><path d="M-26 39L0 58L1 52Z" fill="#cacaca" stroke="#cacaca"></path><path d="M60 -16L47 -16L58 -1Z" fill="#cfd1d3" stroke="#cfd1d3"></path><path d="M72 12L72 1L63 8Z" fill="#d8e0e5" stroke="#d8e0e5"></path><path d="M68 0L60 -16L58 -1Z" fill="#cdcfd0" stroke="#cdcfd0"></path><path d="M95 30L72 1L72 12Z" fill="#d8e0e5" stroke="#d8e0e5"></path><path d="M12 -9L0 0L9 -1Z" fill="#dae3e8" stroke="#dae3e8"></path><path d="M95 30L72 0L72 1Z" fill="#dae3e8" stroke="#dae3e8"></path><path d="M72 1L72 0L68 0Z" fill="#cccccd" stroke="#cccccd"></path><path d="M0 58L8 63L11 57Z" fill="#d0d4d6" stroke="#d0d4d6"></path><path d="M11 57L8 63L23 62Z" fill="#d4d9dc" stroke="#d4d9dc"></path><path d="M42 77L48 72L44 66Z" fill="#d0d4d6" stroke="#d0d4d6"></path><path d="M75 36L84 28L75 34Z" fill="#dae3e8" stroke="#dae3e8"></path><path d="M72 46L76 49L75 36Z" fill="#d7dee2" stroke="#d7dee2"></path><path d="M72 60L53 48L49 59Z" fill="#d7dee2" stroke="#d7dee2"></path><path d="M12 -9L-3 0L0 0Z" fill="#d4d9dc" stroke="#d4d9dc"></path><path d="M0 0L-3 0L2 16Z" fill="#cfd1d3" stroke="#cfd1d3"></path><path d="M42 77L41 62L23 62Z" fill="#cdcfd0" stroke="#cdcfd0"></path><path d="M44 66L51 72L49 59Z" fill="#d7dee2" stroke="#d7dee2"></path><path d="M1 52L0 58L11 57Z" fill="#d4d9dc" stroke="#d4d9dc"></path><path d="M-26 39L1 52L0 43Z" fill="#d2d6d9" stroke="#d2d6d9"></path><path d="M48 72L51 72L44 66Z" fill="#cfd1d3" stroke="#cfd1d3"></path><path d="M89 43L84 28L75 36Z" fill="#cdcfd0" stroke="#cdcfd0"></path><path d="M75 34L84 28L74 33Z" fill="#cdcfd0" stroke="#cdcfd0"></path><path d="M15 72L23 62L8 63Z" fill="#cdcfd0" stroke="#cdcfd0"></path><path d="M15 72L19 72L23 62Z" fill="#d0d4d6" stroke="#d0d4d6"></path><path d="M72 0L60 -16L68 0Z" fill="#d8e0e5" stroke="#d8e0e5"></path><path d="M58 74L72 60L49 59Z" fill="#dae3e8" stroke="#dae3e8"></path><path d="M76 49L89 43L75 36Z" fill="#d5dbdf" stroke="#d5dbdf"></path><path d="M0 71L15 72L8 63Z" fill="#cacaca" stroke="#cacaca"></path><path d="M45 90L42 77L19 72Z" fill="#d2d6d9" stroke="#d2d6d9"></path><path d="M19 72L42 77L23 62Z" fill="#cccccd" stroke="#cccccd"></path><path d="M48 72L42 77L51 72Z" fill="#d8e0e5" stroke="#d8e0e5"></path><path d="M45 90L58 74L51 72Z" fill="#d0d4d6" stroke="#d0d4d6"></path><path d="M51 72L58 74L49 59Z" fill="#d7dee2" stroke="#d7dee2"></path><path d="M47 -16L17 -23L24 -6Z" fill="#cfd1d3" stroke="#cfd1d3"></path><path d="M12 -9L17 -23L-3 0Z" fill="#cacaca" stroke="#cacaca"></path><path d="M44 -32L17 -23L47 -16Z" fill="#d0d4d6" stroke="#d0d4d6"></path><path d="M88 54L89 43L76 49Z" fill="#cdcfd0" stroke="#cdcfd0"></path><path d="M0 58L0 71L8 63Z" fill="#dae3e8" stroke="#dae3e8"></path><path d="M15 72L45 90L19 72Z" fill="#cccccd" stroke="#cccccd"></path><path d="M-22 72L0 71L0 58Z" fill="#cfd1d3" stroke="#cfd1d3"></path><path d="M89 43L92 36L84 28Z" fill="#cacaca" stroke="#cacaca"></path><path d="M84 28L95 30L72 12Z" fill="#d8e0e5" stroke="#d8e0e5"></path><path d="M-22 72L0 72L0 71Z" fill="#d7dee2" stroke="#d7dee2"></path><path d="M0 71L0 72L15 72Z" fill="#cdcfd0" stroke="#cdcfd0"></path><path d="M58 74L72 72L72 60Z" fill="#d0d4d6" stroke="#d0d4d6"></path><path d="M72 60L88 54L76 49Z" fill="#cacaca" stroke="#cacaca"></path><path d="M72 75L72 72L58 74Z" fill="#d8e0e5" stroke="#d8e0e5"></path><path d="M60 -16L44 -32L47 -16Z" fill="#d5dbdf" stroke="#d5dbdf"></path><path d="M83 72L88 54L72 60Z" fill="#dae3e8" stroke="#dae3e8"></path><path d="M89 43L94 53L92 36Z" fill="#dae3e8" stroke="#dae3e8"></path><path d="M94 53L95 30L92 36Z" fill="#d4d9dc" stroke="#d4d9dc"></path><path d="M92 36L95 30L84 28Z" fill="#d5dbdf" stroke="#d5dbdf"></path><path d="M72 0L68 -27L60 -16Z" fill="#cacaca" stroke="#cacaca"></path><path d="M73 77L72 75L58 74Z" fill="#cfd1d3" stroke="#cfd1d3"></path><path d="M72 72L79 72L72 60Z" fill="#d8e0e5" stroke="#d8e0e5"></path><path d="M88 -29L68 -27L72 0Z" fill="#d7dee2" stroke="#d7dee2"></path><path d="M60 -16L68 -27L44 -32Z" fill="#cacaca" stroke="#cacaca"></path><path d="M45 90L73 77L58 74Z" fill="#cacaca" stroke="#cacaca"></path><path d="M72 75L79 72L72 72Z" fill="#d7dee2" stroke="#d7dee2"></path><path d="M73 77L79 72L72 75Z" fill="#d4d9dc" stroke="#d4d9dc"></path><path d="M-26 -4L-26 39L-8 26Z" fill="#cdcfd0" stroke="#cdcfd0"></path><path d="M-8 26L-26 39L0 42Z" fill="#cfd1d3" stroke="#cfd1d3"></path><path d="M88 54L94 53L89 43Z" fill="#d5dbdf" stroke="#d5dbdf"></path><path d="M83 72L94 53L88 54Z" fill="#d4d9dc" stroke="#d4d9dc"></path><path d="M-12 85L45 90L15 72Z" fill="#d8e0e5" stroke="#d8e0e5"></path><path d="M42 77L45 90L51 72Z" fill="#d8e0e5" stroke="#d8e0e5"></path><path d="M73 77L83 72L79 72Z" fill="#d8e0e5" stroke="#d8e0e5"></path><path d="M79 72L83 72L72 60Z" fill="#d2d6d9" stroke="#d2d6d9"></path><path d="M17 -23L-26 -4L-3 0Z" fill="#d8e0e5" stroke="#d8e0e5"></path><path d="M-3 0L-26 -4L-2 18Z" fill="#d5dbdf" stroke="#d5dbdf"></path><path d="M-26 39L-22 72L0 58Z" fill="#d8e0e5" stroke="#d8e0e5"></path><path d="M0 72L-12 85L15 72Z" fill="#d5dbdf" stroke="#d5dbdf"></path><path d="M-22 72L-12 85L0 72Z" fill="#d2d6d9" stroke="#d2d6d9"></path><path d="M95 30L88 -29L72 0Z" fill="#cfd1d3" stroke="#cfd1d3"></path><path d="M68 -27L88 -29L44 -32Z" fill="#d7dee2" stroke="#d7dee2"></path><path d="M-26 39L-32 72L-22 72Z" fill="#d5dbdf" stroke="#d5dbdf"></path><path d="M-22 72L-32 72L-12 85Z" fill="#cfd1d3" stroke="#cfd1d3"></path><path d="M-26 -4L-32 72L-26 39Z" fill="#d8e0e5" stroke="#d8e0e5"></path><path d="M-32 72L-20 101L-12 85Z" fill="#cacaca" stroke="#cacaca"></path><path d="M-12 85L-20 101L45 90Z" fill="#cdcfd0" stroke="#cdcfd0"></path><path d="M-32 72L-22 102L-20 101Z" fill="#d8e0e5" stroke="#d8e0e5"></path><path d="M-20 101L-22 102L45 90Z" fill="#d5dbdf" stroke="#d5dbdf"></path></g></svg>