<svg id="visual" viewBox="0 0 1920 470" width="1920" height="470" xmlns="http://www.w3.org/2000/svg" xmlns:xlink="http://www.w3.org/1999/xlink" version="1.1"><rect width="1920" height="470" fill="#EDF7FA"></rect><g><g transform="translate(603 316)"><path d="M0 -144.8L125.4 -72.4L125.4 72.4L0 144.8L-125.4 72.4L-125.4 -72.4Z" fill="#dcf2fc"></path></g><g transform="translate(1272 200)"><path d="M0 -139L120.4 -69.5L120.4 69.5L0 139L-120.4 69.5L-120.4 -69.5Z" fill="#dcf2fc"></path></g><g transform="translate(242 287)"><path d="M0 -101L87.5 -50.5L87.5 50.5L0 101L-87.5 50.5L-87.5 -50.5Z" fill="#dcf2fc"></path></g><g transform="translate(966 322)"><path d="M0 -121L104.8 -60.5L104.8 60.5L0 121L-104.8 60.5L-104.8 -60.5Z" fill="#dcf2fc"></path></g><g transform="translate(1675 227)"><path d="M0 -131L113.4 -65.5L113.4 65.5L0 131L-113.4 65.5L-113.4 -65.5Z" fill="#dcf2fc"></path></g></g></svg>