<svg id="wave" style="transform:rotate(0deg); transition: 0.3s" viewBox="0 0 1440 490" version="1.1" xmlns="http://www.w3.org/2000/svg"><defs><linearGradient id="sw-gradient-0" x1="0" x2="0" y1="1" y2="0"><stop stop-color="rgba(227.999, 227.999, 227.999, 1)" offset="0%"></stop><stop stop-color="rgba(255, 255, 255, 1)" offset="100%"></stop></linearGradient></defs><path style="transform:translate(0, 0px); opacity:1" fill="url(#sw-gradient-0)" d="M0,392L60,359.3C120,327,240,261,360,212.3C480,163,600,131,720,138.8C840,147,960,196,1080,220.5C1200,245,1320,245,1440,253.2C1560,261,1680,278,1800,302.2C1920,327,2040,359,2160,318.5C2280,278,2400,163,2520,163.3C2640,163,2760,278,2880,326.7C3000,376,3120,359,3240,310.3C3360,261,3480,180,3600,155.2C3720,131,3840,163,3960,204.2C4080,245,4200,294,4320,334.8C4440,376,4560,408,4680,408.3C4800,408,4920,376,5040,334.8C5160,294,5280,245,5400,245C5520,245,5640,294,5760,302.2C5880,310,6000,278,6120,253.2C6240,229,6360,212,6480,196C6600,180,6720,163,6840,147C6960,131,7080,114,7200,122.5C7320,131,7440,163,7560,147C7680,131,7800,65,7920,106.2C8040,147,8160,294,8280,334.8C8400,376,8520,310,8580,277.7L8640,245L8640,490L8580,490C8520,490,8400,490,8280,490C8160,490,8040,490,7920,490C7800,490,7680,490,7560,490C7440,490,7320,490,7200,490C7080,490,6960,490,6840,490C6720,490,6600,490,6480,490C6360,490,6240,490,6120,490C6000,490,5880,490,5760,490C5640,490,5520,490,5400,490C5280,490,5160,490,5040,490C4920,490,4800,490,4680,490C4560,490,4440,490,4320,490C4200,490,4080,490,3960,490C3840,490,3720,490,3600,490C3480,490,3360,490,3240,490C3120,490,3000,490,2880,490C2760,490,2640,490,2520,490C2400,490,2280,490,2160,490C2040,490,1920,490,1800,490C1680,490,1560,490,1440,490C1320,490,1200,490,1080,490C960,490,840,490,720,490C600,490,480,490,360,490C240,490,120,490,60,490L0,490Z"></path><defs><linearGradient id="sw-gradient-1" x1="0" x2="0" y1="1" y2="0"><stop stop-color="rgba(255, 255, 255, 1)" offset="0%"></stop><stop stop-color="rgba(239.383, 239.383, 239.383, 1)" offset="100%"></stop></linearGradient></defs><path style="transform:translate(0, 50px); opacity:0.9" fill="url(#sw-gradient-1)" d="M0,98L60,147C120,196,240,294,360,351.2C480,408,600,425,720,416.5C840,408,960,376,1080,302.2C1200,229,1320,114,1440,89.8C1560,65,1680,131,1800,179.7C1920,229,2040,261,2160,285.8C2280,310,2400,327,2520,294C2640,261,2760,180,2880,171.5C3000,163,3120,229,3240,220.5C3360,212,3480,131,3600,89.8C3720,49,3840,49,3960,65.3C4080,82,4200,114,4320,155.2C4440,196,4560,245,4680,285.8C4800,327,4920,359,5040,359.3C5160,359,5280,327,5400,294C5520,261,5640,229,5760,245C5880,261,6000,327,6120,302.2C6240,278,6360,163,6480,114.3C6600,65,6720,82,6840,81.7C6960,82,7080,65,7200,122.5C7320,180,7440,310,7560,351.2C7680,392,7800,343,7920,277.7C8040,212,8160,131,8280,81.7C8400,33,8520,16,8580,8.2L8640,0L8640,490L8580,490C8520,490,8400,490,8280,490C8160,490,8040,490,7920,490C7800,490,7680,490,7560,490C7440,490,7320,490,7200,490C7080,490,6960,490,6840,490C6720,490,6600,490,6480,490C6360,490,6240,490,6120,490C6000,490,5880,490,5760,490C5640,490,5520,490,5400,490C5280,490,5160,490,5040,490C4920,490,4800,490,4680,490C4560,490,4440,490,4320,490C4200,490,4080,490,3960,490C3840,490,3720,490,3600,490C3480,490,3360,490,3240,490C3120,490,3000,490,2880,490C2760,490,2640,490,2520,490C2400,490,2280,490,2160,490C2040,490,1920,490,1800,490C1680,490,1560,490,1440,490C1320,490,1200,490,1080,490C960,490,840,490,720,490C600,490,480,490,360,490C240,490,120,490,60,490L0,490Z"></path></svg>