<?xml version="1.0" standalone="no"?>
<svg xmlns:xlink="http://www.w3.org/1999/xlink" id="wave" style="transform:rotate(180deg); transition: 0.3s" viewBox="0 0 1440 390" version="1.1" xmlns="http://www.w3.org/2000/svg"><defs><linearGradient id="sw-gradient-0" x1="0" x2="0" y1="1" y2="0"><stop stop-color="rgba(23.088, 23.088, 23.088, 1)" offset="0%"/><stop stop-color="rgba(198.401, 198.401, 198.401, 1)" offset="100%"/></linearGradient></defs><path style="transform:translate(0, 0px); opacity:1" fill="url(#sw-gradient-0)" d="M0,196L120,163.3C240,131,480,65,720,32.7C960,0,1200,0,1440,57.2C1680,114,1920,229,2160,294C2400,359,2640,376,2880,367.5C3120,359,3360,327,3600,302.2C3840,278,4080,261,4320,236.8C4560,212,4800,180,5040,196C5280,212,5520,278,5760,318.5C6000,359,6240,376,6480,334.8C6720,294,6960,196,7200,187.8C7440,180,7680,261,7920,285.8C8160,310,8400,278,8640,245C8880,212,9120,180,9360,163.3C9600,147,9840,147,10080,179.7C10320,212,10560,278,10800,318.5C11040,359,11280,376,11520,318.5C11760,261,12000,131,12240,122.5C12480,114,12720,229,12960,269.5C13200,310,13440,278,13680,285.8C13920,294,14160,343,14400,318.5C14640,294,14880,196,15120,130.7C15360,65,15600,33,15840,16.3C16080,0,16320,0,16560,49C16800,98,17040,196,17160,245L17280,294L17280,490L17160,490C17040,490,16800,490,16560,490C16320,490,16080,490,15840,490C15600,490,15360,490,15120,490C14880,490,14640,490,14400,490C14160,490,13920,490,13680,490C13440,490,13200,490,12960,490C12720,490,12480,490,12240,490C12000,490,11760,490,11520,490C11280,490,11040,490,10800,490C10560,490,10320,490,10080,490C9840,490,9600,490,9360,490C9120,490,8880,490,8640,490C8400,490,8160,490,7920,490C7680,490,7440,490,7200,490C6960,490,6720,490,6480,490C6240,490,6000,490,5760,490C5520,490,5280,490,5040,490C4800,490,4560,490,4320,490C4080,490,3840,490,3600,490C3360,490,3120,490,2880,490C2640,490,2400,490,2160,490C1920,490,1680,490,1440,490C1200,490,960,490,720,490C480,490,240,490,120,490L0,490Z"/><defs><linearGradient id="sw-gradient-1" x1="0" x2="0" y1="1" y2="0"><stop stop-color="rgba(16.258, 16.258, 16.258, 1)" offset="0%"/><stop stop-color="rgba(225.722, 225.722, 225.722, 1)" offset="100%"/></linearGradient></defs><path style="transform:translate(0, 50px); opacity:0.9" fill="url(#sw-gradient-1)" d="M0,441L120,441C240,441,480,441,720,383.8C960,327,1200,212,1440,155.2C1680,98,1920,98,2160,89.8C2400,82,2640,65,2880,81.7C3120,98,3360,147,3600,155.2C3840,163,4080,131,4320,171.5C4560,212,4800,327,5040,310.3C5280,294,5520,147,5760,89.8C6000,33,6240,65,6480,73.5C6720,82,6960,65,7200,73.5C7440,82,7680,114,7920,163.3C8160,212,8400,278,8640,310.3C8880,343,9120,343,9360,351.2C9600,359,9840,376,10080,367.5C10320,359,10560,327,10800,269.5C11040,212,11280,131,11520,106.2C11760,82,12000,114,12240,147C12480,180,12720,212,12960,245C13200,278,13440,310,13680,269.5C13920,229,14160,114,14400,73.5C14640,33,14880,65,15120,114.3C15360,163,15600,229,15840,269.5C16080,310,16320,327,16560,294C16800,261,17040,180,17160,138.8L17280,98L17280,490L17160,490C17040,490,16800,490,16560,490C16320,490,16080,490,15840,490C15600,490,15360,490,15120,490C14880,490,14640,490,14400,490C14160,490,13920,490,13680,490C13440,490,13200,490,12960,490C12720,490,12480,490,12240,490C12000,490,11760,490,11520,490C11280,490,11040,490,10800,490C10560,490,10320,490,10080,490C9840,490,9600,490,9360,490C9120,490,8880,490,8640,490C8400,490,8160,490,7920,490C7680,490,7440,490,7200,490C6960,490,6720,490,6480,490C6240,490,6000,490,5760,490C5520,490,5280,490,5040,490C4800,490,4560,490,4320,490C4080,490,3840,490,3600,490C3360,490,3120,490,2880,490C2640,490,2400,490,2160,490C1920,490,1680,490,1440,490C1200,490,960,490,720,490C480,490,240,490,120,490L0,490Z"/><defs><linearGradient id="sw-gradient-2" x1="0" x2="0" y1="1" y2="0"><stop stop-color="rgba(191.57, 191.57, 191.57, 1)" offset="0%"/><stop stop-color="rgba(91.392, 91.392, 91.392, 1)" offset="100%"/></linearGradient></defs><path style="transform:translate(0, 100px); opacity:0.8" fill="url(#sw-gradient-2)" d="M0,0L120,65.3C240,131,480,261,720,318.5C960,376,1200,359,1440,302.2C1680,245,1920,147,2160,98C2400,49,2640,49,2880,40.8C3120,33,3360,16,3600,40.8C3840,65,4080,131,4320,204.2C4560,278,4800,359,5040,343C5280,327,5520,212,5760,147C6000,82,6240,65,6480,122.5C6720,180,6960,310,7200,334.8C7440,359,7680,278,7920,220.5C8160,163,8400,131,8640,147C8880,163,9120,229,9360,228.7C9600,229,9840,163,10080,138.8C10320,114,10560,131,10800,138.8C11040,147,11280,147,11520,171.5C11760,196,12000,245,12240,245C12480,245,12720,196,12960,147C13200,98,13440,49,13680,24.5C13920,0,14160,0,14400,0C14640,0,14880,0,15120,0C15360,0,15600,0,15840,32.7C16080,65,16320,131,16560,155.2C16800,180,17040,163,17160,155.2L17280,147L17280,490L17160,490C17040,490,16800,490,16560,490C16320,490,16080,490,15840,490C15600,490,15360,490,15120,490C14880,490,14640,490,14400,490C14160,490,13920,490,13680,490C13440,490,13200,490,12960,490C12720,490,12480,490,12240,490C12000,490,11760,490,11520,490C11280,490,11040,490,10800,490C10560,490,10320,490,10080,490C9840,490,9600,490,9360,490C9120,490,8880,490,8640,490C8400,490,8160,490,7920,490C7680,490,7440,490,7200,490C6960,490,6720,490,6480,490C6240,490,6000,490,5760,490C5520,490,5280,490,5040,490C4800,490,4560,490,4320,490C4080,490,3840,490,3600,490C3360,490,3120,490,2880,490C2640,490,2400,490,2160,490C1920,490,1680,490,1440,490C1200,490,960,490,720,490C480,490,240,490,120,490L0,490Z"/></svg>